PathFileType	4	(X/Y/Z)	output.trc
DataRate	CameraRate	NumFrames	NumMarkers	Units	OrigDataRate	OrigDataStartFrame	OrigNumFrames
100	100	10	23	m	100	3061	3498
Frame#	Time	C7			T8			EL			EM			US			RS			AA			Fore_Clus_1			Fore_Clus_2			Fore_Clus_3			Fore_Clus_4			Hum_Clus_1			Hum_Clus_2			Hum_Clus_3			Hum_Clus_4			Thor_Clus_1			Thor_Clus_2			Thor_Clus_3			Thor_Clus_4			IJ			PX			GH			Thor_Clus_5		
		X1	Y1	Z1	X2	Y2	Z2	X3	Y3	Z3	X4	Y4	Z4	X5	Y5	Z5	X6	Y6	Z6	X7	Y7	Z7	X8	Y8	Z8	X9	Y9	Z9	X10	Y10	Z10	X11	Y11	Z11	X12	Y12	Z12	X13	Y13	Z13	X14	Y14	Z14	X15	Y15	Z15	X16	Y16	Z16	X17	Y17	Z17	X18	Y18	Z18	X19	Y19	Z19	X20	Y20	Z20	X21	Y21	Z21	X22	Y22	Z22	X23	Y23	Z23
3060	30.600000	0.096436	1.486273	-0.018868	0.016363	1.286805	-0.120532	-0.299460	1.425423	-0.187927	-0.252671	1.397730	-0.224185	-0.459384	1.428978	-0.369553	-0.456852	1.376675	-0.383206	-0.118288	1.449930	0.029870	-0.437715	1.425083	-0.295464	-0.474063	1.424042	-0.336445	-0.473593	1.396118	-0.335886	-0.436662	1.380206	-0.294443	-0.263064	1.434300	-0.088725	-0.230564	1.478362	-0.113988	-0.196496	1.497186	-0.063824	-0.217183	1.451345	-0.032884	0.106818	1.334215	0.115578	0.033318	1.300223	0.140033	0.064106	1.345202	0.120458	0.095311	1.283698	0.132843	0.076579	1.371083	0.062049	0.006526	1.162005	0.065687	-0.069349	1.440900	0.016713	0.038666	1.322921	0.132241
3061	30.610000	0.096335	1.486293	-0.019355	0.016244	1.286758	-0.120875	-0.299562	1.425068	-0.188326	-0.252760	1.397355	-0.224552	-0.459474	1.428291	-0.369972	-0.456951	1.375958	-0.383512	-0.118383	1.449987	0.029435	-0.437784	1.424556	-0.295867	-0.474133	1.423429	-0.336872	-0.473634	1.395526	-0.336261	-0.436757	1.379678	-0.294773	-0.263156	1.434118	-0.089117	-0.230646	1.478107	-0.114485	-0.196579	1.497055	-0.064348	-0.217290	1.451272	-0.033312	0.106779	1.334333	0.115201	0.033249	1.300349	0.139747	0.064044	1.345362	0.120174	0.095293	1.283841	0.132408	0.076486	1.371158	0.061642	0.006429	1.162083	0.065430	-0.069447	1.440936	0.016279	0.038574	1.323047	0.131825
3062	30.620000	0.096237	1.486304	-0.019837	0.016116	1.286706	-0.121208	-0.299649	1.424709	-0.188739	-0.252831	1.396974	-0.224928	-0.459531	1.427590	-0.370418	-0.457016	1.375228	-0.383841	-0.118478	1.450050	0.029007	-0.437850	1.424002	-0.296355	-0.474172	1.422780	-0.337334	-0.473689	1.394874	-0.336731	-0.436788	1.379131	-0.295147	-0.263246	1.433968	-0.089543	-0.230715	1.477927	-0.115006	-0.196674	1.496965	-0.064894	-0.217412	1.451237	-0.033798	0.106701	1.334470	0.114806	0.033218	1.300422	0.139450	0.063993	1.345520	0.119873	0.095196	1.283988	0.132103	0.076390	1.371227	0.061242	0.006316	1.162161	0.065184	-0.069547	1.440971	0.015849	0.038467	1.323170	0.131448
3063	30.630000	0.096139	1.486309	-0.020313	0.015975	1.286651	-0.121532	-0.299722	1.424344	-0.189166	-0.252884	1.396588	-0.225314	-0.459557	1.426872	-0.370891	-0.457048	1.374479	-0.384194	-0.118573	1.450119	0.028589	-0.437911	1.423489	-0.296856	-0.474183	1.422083	-0.337865	-0.473757	1.394182	-0.337147	-0.436846	1.378562	-0.295542	-0.263339	1.433824	-0.089990	-0.230805	1.477736	-0.115486	-0.196823	1.496822	-0.065419	-0.217541	1.451139	-0.034255	0.106603	1.334422	0.114727	0.033059	1.300734	0.139177	0.063937	1.345661	0.119536	0.095108	1.284096	0.131790	0.076288	1.371291	0.060849	0.006185	1.162238	0.064949	-0.069648	1.441004	0.015422	0.038359	1.323294	0.131101
3064	30.640000	0.096037	1.486312	-0.020779	0.015813	1.286600	-0.121846	-0.299784	1.423972	-0.189604	-0.252925	1.396195	-0.225708	-0.459553	1.426130	-0.371392	-0.457047	1.373705	-0.384571	-0.118673	1.450197	0.028192	-0.437920	1.422937	-0.297330	-0.474144	1.421482	-0.338408	-0.473753	1.393557	-0.337590	-0.436872	1.377990	-0.295954	-0.263405	1.433628	-0.090504	-0.230931	1.477529	-0.115976	-0.197000	1.496685	-0.065875	-0.217614	1.451043	-0.034714	0.106490	1.334469	0.114485	0.032968	1.300977	0.138794	0.063869	1.345774	0.119129	0.094965	1.284185	0.131475	0.076180	1.371353	0.060466	0.006038	1.162316	0.064721	-0.069751	1.441034	0.014997	0.038236	1.323426	0.130762
3065	30.650000	0.095933	1.486303	-0.021246	0.015640	1.286537	-0.122152	-0.299835	1.423590	-0.190055	-0.252951	1.395793	-0.226111	-0.459523	1.425366	-0.371918	-0.457015	1.372911	-0.384974	-0.118774	1.450272	0.027800	-0.438015	1.422432	-0.297691	-0.474220	1.420696	-0.338896	-0.473747	1.392852	-0.338063	-0.436894	1.377412	-0.296344	-0.263463	1.433393	-0.090948	-0.231056	1.477333	-0.116492	-0.197099	1.496550	-0.066401	-0.217696	1.450907	-0.035190	0.106375	1.334548	0.114148	0.032858	1.301118	0.138450	0.063738	1.345847	0.118722	0.094828	1.284249	0.131120	0.076068	1.371407	0.060085	0.005879	1.162389	0.064506	-0.069859	1.441061	0.014576	0.038155	1.323496	0.130420
3066	30.660000	0.095819	1.486294	-0.021703	0.015448	1.286480	-0.122450	-0.299879	1.423200	-0.190518	-0.252968	1.395385	-0.226524	-0.459469	1.424576	-0.372472	-0.456953	1.372090	-0.385404	-0.118883	1.450351	0.027427	-0.437962	1.421658	-0.298416	-0.474234	1.419989	-0.339421	-0.473718	1.392150	-0.338495	-0.436844	1.376826	-0.296784	-0.263560	1.433190	-0.091402	-0.231163	1.477124	-0.117050	-0.197069	1.496477	-0.067015	-0.217748	1.450785	-0.035683	0.106256	1.334676	0.113633	0.032679	1.301415	0.138110	0.063553	1.345923	0.118302	0.094664	1.284343	0.130743	0.075948	1.371458	0.059712	0.005707	1.162461	0.064295	-0.069973	1.441083	0.014155	0.038075	1.323624	0.130112
3067	30.670000	0.095698	1.486278	-0.022158	0.015245	1.286416	-0.122744	-0.299917	1.422799	-0.190993	-0.252975	1.394968	-0.226947	-0.459395	1.423763	-0.373051	-0.456865	1.371248	-0.385862	-0.118998	1.450424	0.027061	-0.438003	1.421018	-0.298888	-0.474223	1.419335	-0.339931	-0.473679	1.391427	-0.338975	-0.436822	1.376166	-0.297175	-0.263668	1.432986	-0.091839	-0.231262	1.476916	-0.117524	-0.197229	1.496315	-0.067514	-0.217867	1.450684	-0.036169	0.106135	1.334866	0.112952	0.032568	1.301478	0.137812	0.063444	1.345990	0.117949	0.094569	1.284447	0.130409	0.075822	1.371503	0.059341	0.005530	1.162528	0.064089	-0.070094	1.441101	0.013737	0.037975	1.323724	0.129780
3068	30.680000	0.095567	1.486258	-0.022611	0.015035	1.286347	-0.123037	-0.299952	1.422388	-0.191481	-0.252975	1.394544	-0.227380	-0.459305	1.422930	-0.373654	-0.456752	1.370388	-0.386348	-0.119123	1.450488	0.026700	-0.437921	1.420429	-0.299470	-0.474169	1.418600	-0.340510	-0.473600	1.390714	-0.339458	-0.436797	1.375577	-0.297656	-0.263734	1.432744	-0.092344	-0.231377	1.476661	-0.118039	-0.197390	1.496136	-0.068092	-0.217994	1.450536	-0.036669	0.105967	1.334922	0.112653	0.032406	1.301573	0.137472	0.063344	1.346052	0.117561	0.094462	1.284544	0.130090	0.075690	1.371543	0.058972	0.005349	1.162588	0.063883	-0.070226	1.441114	0.013320	0.037864	1.323848	0.129459
3069	30.690000	0.095420	1.486241	-0.023056	0.014816	1.286282	-0.123329	-0.299985	1.421969	-0.191980	-0.252971	1.394117	-0.227823	-0.459201	1.422079	-0.374282	-0.456616	1.369512	-0.386864	-0.119260	1.450544	0.026349	-0.437882	1.419776	-0.300107	-0.474089	1.417876	-0.341189	-0.473562	1.389946	-0.340035	-0.436873	1.374960	-0.298111	-0.263818	1.432467	-0.092903	-0.231493	1.476386	-0.118559	-0.197617	1.495929	-0.068560	-0.218139	1.450350	-0.037150	0.105800	1.334985	0.112300	0.032265	1.301634	0.137209	0.063213	1.346128	0.117176	0.094333	1.284618	0.129808	0.075548	1.371581	0.058606	0.005168	1.162643	0.063673	-0.070366	1.441121	0.012902	0.037672	1.323941	0.129096
